<svg width="600" height="685" viewBox="0 0 600 685" fill="none" xmlns="http://www.w3.org/2000/svg">
<g clip-path="url(#clip0_6320_4525)">
<mask id="mask0_6320_4525" style="mask-type:luminance" maskUnits="userSpaceOnUse" x="0" y="0" width="599" height="685">
<path d="M598.973 0H0V684.411H598.973V0Z" fill="white"/>
</mask>
<g mask="url(#mask0_6320_4525)">
<path d="M597.394 110.673L596.612 91.8225L577.827 90.0362C494.662 82.1198 391.934 49.7317 309.723 5.51443L299.48 0.00268555L289.232 5.51443C207.014 49.7317 104.283 82.1198 21.1273 90.0362L2.34499 91.8225L1.56248 110.673C-2.82683 216.435 -1.27324 352.177 50.1027 464.01L50.2031 464.222C105.597 581.452 211.689 646.663 290.931 680.728L299.475 684.397L308.019 680.728C387.26 646.661 493.35 581.45 548.747 464.222L548.849 464.01C600.226 352.177 601.8 216.437 597.397 110.673" fill="#1367A3"/>
<path d="M301.481 20.8726L299.496 19.8049L297.506 20.8726C213.38 66.1209 108.116 99.2736 22.7864 107.398L19.1408 107.747L18.9902 111.399C15.7553 189.437 15.7735 284.005 37.1544 372.249L466.049 86.1899C409.471 70.5445 351.707 47.893 301.471 20.8703" fill="white"/>
<path d="M112.644 530.53C167.538 597.963 240.045 639.878 297.828 664.715L299.486 665.429L301.143 664.715C377.621 631.843 479.927 569.076 533.019 456.741C566.908 382.953 578.409 297.782 580.943 218.18L112.628 530.518L112.644 530.53Z" fill="white"/>
<path d="M133.429 533.427C183.973 590.525 247.426 627.401 299.487 650.226C373.298 617.867 470.065 557.304 520.339 450.919C549.475 387.481 561.616 314.995 565.757 245.069L133.418 533.409L133.429 533.427Z" fill="#8DD8F8"/>
<path d="M299.496 35.622C217.411 78.9609 116.495 110.982 32.6006 120.404C29.9861 189.919 30.399 271.647 46.3253 349.36L433.495 91.1113C387.091 76.456 340.894 57.4841 299.487 35.6174" fill="#8DD8F8"/>
<path d="M64.4097 418.221L110.094 387.506C113.238 385.389 116.156 383.788 118.843 382.69C121.537 381.598 124.056 381.105 126.41 381.214C128.765 381.317 130.959 382.059 132.99 383.432C135.025 384.81 136.962 386.865 138.801 389.603C140.439 392.037 141.566 394.132 142.195 395.884C142.823 397.643 143.101 399.219 143.037 400.615C142.971 402.007 142.626 403.248 142.015 404.341C141.397 405.433 140.662 406.528 139.813 407.624L139.969 407.861C143.758 405.981 147.084 405.627 149.943 406.784C152.797 407.941 155.651 410.637 158.502 414.883C160.585 417.983 161.888 420.771 162.404 423.237C162.926 425.708 162.844 427.957 162.169 429.992C161.491 432.018 160.318 433.878 158.651 435.563C156.981 437.245 155.003 438.86 152.715 440.4L102.173 474.383L64.4097 418.239V418.221ZM95.2492 429.81L123.344 410.916C124.818 409.925 125.751 408.837 126.125 407.644C126.504 406.453 126.148 405.055 125.071 403.455C123.958 401.792 122.781 400.921 121.533 400.818C120.29 400.716 118.928 401.158 117.449 402.155L89.3519 421.043L95.2492 429.803V429.81ZM108.969 450.205L137.423 431.076C139.136 429.917 140.336 428.719 141.018 427.467C141.702 426.219 141.49 424.77 140.375 423.116C139.088 421.202 137.719 420.301 136.275 420.408C134.829 420.525 133.239 421.15 131.525 422.309L103.072 441.436L108.969 450.219V450.205Z" fill="white"/>
<path d="M152.435 387.627C149.688 383.544 147.938 379.841 147.195 376.508C146.444 373.184 146.547 370.091 147.5 367.239C148.452 364.385 150.14 361.727 152.574 359.268C154.999 356.811 158.004 354.377 161.579 351.974L187.025 334.859C190.602 332.457 193.985 330.596 197.179 329.272C200.376 327.951 203.474 327.386 206.478 327.582C209.478 327.778 212.38 328.85 215.179 330.796C217.976 332.749 220.75 335.763 223.497 339.847L234.762 356.605C237.545 360.742 239.302 364.46 240.029 367.764C240.764 371.06 240.652 374.138 239.699 376.996C238.745 379.853 237.057 382.513 234.623 384.967C232.195 387.427 229.195 389.863 225.619 392.263L200.168 409.378C196.595 411.783 193.21 413.642 190.016 414.963C186.822 416.288 183.724 416.85 180.717 416.651C177.717 416.453 174.822 415.399 172.043 413.478C169.262 411.552 166.481 408.525 163.698 404.386L152.444 387.573L152.435 387.627ZM176.403 388.084C177.758 390.1 179.043 391.752 180.254 393.041C181.468 394.335 182.7 395.188 183.959 395.619C185.216 396.05 186.582 396.071 188.049 395.683C189.523 395.295 191.186 394.478 193.041 393.231L213.345 379.577C215.204 378.326 216.589 377.094 217.504 375.878C218.417 374.667 218.912 373.394 218.989 372.066C219.065 370.739 218.734 369.274 217.999 367.659C217.265 366.053 216.22 364.241 214.862 362.222L210.792 356.174C209.611 354.418 208.427 352.939 207.245 351.748C206.063 350.553 204.781 349.704 203.405 349.202C202.027 348.696 200.522 348.623 198.888 348.97C197.255 349.321 195.386 350.192 193.29 351.605L174.706 364.104C172.609 365.514 171.09 366.915 170.147 368.293C169.21 369.675 168.715 371.099 168.66 372.561C168.605 374.028 168.909 375.536 169.566 377.081C170.227 378.625 171.149 380.279 172.326 382.036L176.403 388.081V388.084Z" fill="white"/>
<path d="M219.829 313.711L235.709 303.034L263.77 344.761L299.427 320.783L309.123 335.225L257.587 369.879L219.829 313.711Z" fill="white"/>
<path d="M316.716 330.141L332.587 319.469L294.824 263.311L278.952 273.983L316.716 330.141Z" fill="white"/>
<path d="M301.389 258.869L318.773 247.188L367.07 275.318L359.222 219.973L376.606 208.292L386.553 283.166L366.979 296.329L301.389 258.869Z" fill="white"/>
<path d="M398.689 193.439L419.352 179.545L485.566 216.579L467.908 228.454L456.298 221.839L424.129 243.47L426.159 256.526L408.428 268.446L398.687 193.457L398.689 193.439ZM421.936 227.379L442.241 213.729L417.759 199.553L421.934 227.379H421.936Z" fill="white"/>
<path d="M453.466 156.615L501.363 124.409C504.413 122.361 507.208 121.063 509.749 120.517C512.289 119.977 514.634 120.034 516.772 120.695C518.909 121.357 520.908 122.55 522.758 124.275C524.613 125.997 526.385 128.121 528.089 130.656L530.489 134.224C531.742 136.088 532.753 137.844 533.521 139.505C534.297 141.168 534.742 142.781 534.863 144.353C534.984 145.923 534.726 147.499 534.101 149.087C533.473 150.672 532.406 152.31 530.911 153.99L531.019 154.145C532.381 153.604 533.734 153.2 535.08 152.936C536.421 152.669 537.801 152.735 539.216 153.139C540.628 153.54 542.056 154.327 543.495 155.495C544.942 156.666 546.448 158.413 548.01 160.74L554.428 170.283L538.561 180.955L534.021 174.205C532.041 171.255 530.202 169.528 528.507 169.015C526.814 168.501 524.727 169.079 522.247 170.744L497.298 187.521L507.103 202.104L491.232 212.776L453.452 156.615H453.466ZM487.892 173.561L514.127 155.92C516.27 154.48 517.465 152.983 517.698 151.434C517.94 149.885 517.378 148.104 516.023 146.085L514.775 144.225C513.105 141.743 511.445 140.534 509.788 140.593C508.132 140.655 506.04 141.536 503.515 143.233L478.709 159.914L487.903 173.561H487.892Z" fill="white"/>
</g>
</g>
<defs>
<clipPath id="clip0_6320_4525">
<rect width="600" height="684.411" fill="white"/>
</clipPath>
</defs>
</svg>
